<svg id="Layer_2" data-name="Layer 2" xmlns="http://www.w3.org/2000/svg" xmlns:xlink="http://www.w3.org/1999/xlink" viewBox="0 0 400 300" width="406" height="306" class="illustration styles_illustrationTablet__1DWOa"><defs><linearGradient id="linear-gradient" x1="275.45" y1="211.99" x2="289.41" y2="190.64" gradientUnits="userSpaceOnUse"><stop offset="0.01" stop-color="#7bbdef"></stop><stop offset="1" stop-color="#225870"></stop></linearGradient><linearGradient id="linear-gradient-2" x1="46.6" y1="185.4" x2="55.96" y2="171.09" xlink:href="#linear-gradient"></linearGradient><linearGradient id="linear-gradient-3" x1="153.9" y1="243.65" x2="177.81" y2="207.1" xlink:href="#linear-gradient"></linearGradient><linearGradient id="linear-gradient-4" x1="190.11" y1="18.1" x2="185.06" y2="162.82" gradientUnits="userSpaceOnUse"><stop offset="0" stop-color="#ffeed9" stop-opacity="0"></stop><stop offset="1" stop-color="#68e1fd"></stop></linearGradient></defs><title>PP</title><path d="M194.28,289.5,14.56,183.29c-5.72-3.21-10.63-8.49-5.05-11.94l180.37-104c2.71-1.68,6.82-2.78,9.57-1.18L388.11,175.7c5.72,3.32,6.75,12.6,1,15.93L218,289.34A23.9,23.9,0,0,1,194.28,289.5Z" fill="#7bbdef"></path><path d="M309.15,196.37,288,188.61l-34.11,17.16,28.54,20.29C291.14,221.62,302.81,214.86,309.15,196.37Z" fill="url(#linear-gradient)"></path><path d="M74.43,178.36,51,167.35,27.42,179.22l21,12.44C57.07,187.21,65.72,182.73,74.43,178.36Z" fill="url(#linear-gradient-2)"></path><polyline points="237.51 226.74 169.63 260.86 95.65 221.78 157.65 186.69" fill="url(#linear-gradient-3)"></polyline><path d="M242.32,196.71c-10.25-9.48-31-16-55-16s-44.76,6.48-55,16H125.5V210.1c0,16.21,27.67,29.35,61.81,29.35s61.81-13.14,61.81-29.35V196.71Z" fill="#68e1fd"></path><path d="M242.32,196.71c-10.25-9.48-31-16-55-16s-44.76,6.48-55,16H125.5V210.1c0,16.21,27.67,29.35,61.81,29.35s61.81-13.14,61.81-29.35V196.71Z" fill="#1b4075" opacity="0.47"></path><ellipse cx="187.3" cy="196.71" rx="61.81" ry="29.35" fill="#68e1fd"></ellipse><path d="M125.08,23.4v174c0,16.21,27.67,29.35,61.81,29.35s61.81-13.14,61.81-29.35V26.11Z" opacity="0.38" fill="url(#linear-gradient-4)"></path><line x1="164.46" y1="36.15" x2="204.73" y2="23.4" fill="none" stroke="#f15a24" stroke-miterlimit="10"></line><line x1="163.79" y1="41.09" x2="210.36" y2="32.72" fill="none" stroke="#f15a24" stroke-miterlimit="10"></line><line x1="162" y1="45.1" x2="211.92" y2="45.1" fill="none" stroke="#f15a24" stroke-miterlimit="10"></line><line x1="162.55" y1="47.61" x2="210.36" y2="57.8" fill="none" stroke="#f15a24" stroke-miterlimit="10"></line><line x1="170.23" y1="53.87" x2="207.49" y2="70.06" fill="none" stroke="#f15a24" stroke-miterlimit="10"></line><line x1="176.41" y1="65.19" x2="186.96" y2="96.92" fill="none" stroke="#f15a24" stroke-miterlimit="10"></line><line x1="183.5" y1="66.93" x2="193.93" y2="90.14" fill="none" stroke="#f15a24" stroke-miterlimit="10"></line><line x1="180.63" y1="104.96" x2="204.73" y2="94.05" fill="none" stroke="#f15a24" stroke-miterlimit="10"></line><line x1="169.23" y1="115.83" x2="207.49" y2="102.13" fill="none" stroke="#f15a24" stroke-miterlimit="10"></line><path d="M163.83,120.85c.92-1,46.52-9.07,46.52-9.07" fill="none" stroke="#f15a24" stroke-miterlimit="10"></path><path d="M211.92,125.86S162,124.19,162,124.22c.5,2.25,48.36,12.33,48.36,12.33" fill="none" stroke="#f15a24" stroke-miterlimit="10"></path><line x1="170.23" y1="136.55" x2="207.49" y2="148.03" fill="none" stroke="#f15a24" stroke-miterlimit="10"></line><line x1="181.68" y1="144.9" x2="187.09" y2="170.38" fill="none" stroke="#f15a24" stroke-miterlimit="10"></line><line x1="186.96" y1="149.07" x2="192.68" y2="166.54" fill="none" stroke="#f15a24" stroke-miterlimit="10"></line><line x1="181.09" y1="184.58" x2="204.73" y2="171.5" fill="none" stroke="#f15a24" stroke-miterlimit="10"></line><line x1="167.82" y1="196.37" x2="207.49" y2="181.41" fill="none" stroke="#f15a24" stroke-miterlimit="10"></line><path d="M162.3,33.58a21.53,21.53,0,0,0-5.86,8.82A10.58,10.58,0,0,0,156.2,48a11,11,0,0,0,3,4.92A47.48,47.48,0,0,0,168,59.61c1.52,1,3,1.9,4.55,2.88.68.44,1.36.89,2,1.36s1.45,1,1.83,1.34a110.67,110.67,0,0,1,16.4,15.44,70.34,70.34,0,0,1,11.36,18.75,71.49,71.49,0,0,1,5.19,23.44,50.37,50.37,0,0,1-3.52,21.89c-.19.46-.51,1.19-.89,2s-.78,1.58-1.19,2.36c-.84,1.56-1.74,3.08-2.71,4.56s-2,3-3.08,4.39l-.38.51-.11.15-.9,1.13q-.86,1.07-1.75,2.12a189.11,189.11,0,0,1-14.35,14.95c-7.31,6.94-14.9,13.6-22.68,20l-.42.35a3,3,0,0,0,0,4.28,3.1,3.1,0,0,0,4.28,0c6.65-5.43,13.12-11.1,19.43-16.92,5-4.61,9.91-9.33,14.49-14.36a92.85,92.85,0,0,0,13.19-17.69,54.38,54.38,0,0,0,6.5-21.79,71.87,71.87,0,0,0-2.45-24.59A75.79,75.79,0,0,0,203,84.22,91.65,91.65,0,0,0,187.94,67q-4.33-3.91-9-7.42c-2.78-2.08-5.8-3.82-8.71-5.7-.76-.49-1.51-1-2.25-1.5l-1-.73-.5-.37a1.78,1.78,0,0,1-.25-.19,21.23,21.23,0,0,1-3.66-3.47c.26.34,0-.06-.06-.11l-.28-.5c-.41-.74.07.29-.06-.17,0-.17-.08-.36-.14-.52-.16-.4,0,.45,0,0,0-.18,0-.36,0-.54s0-.36,0-.54c0-.35-.11.43,0-.14.08-.36.16-.73.28-1.08.06-.18.12-.36.19-.54.29-.85-.14.28.09-.21a17.11,17.11,0,0,1,1.24-2.18c.22-.33.45-.65.68-1-.28.37,0,0,.07-.07l.46-.55c.5-.57,1-1.12,1.58-1.65a3,3,0,0,0-4.28-4.28Z" fill="#a2c609"></path><path d="M203.11,20.56a24.23,24.23,0,0,1,1.62,2.84q.35.69.67,1.39l.39.87c.08.19.3.61-.05-.13.11.23.2.48.29.72q.86,2.16,1.5,4.39a50.3,50.3,0,0,1,1.29,5.66c.08.47.15.95.22,1.43-.09-.65,0,.33,0,.37q.05.45.1.9.17,1.72.22,3.46a52.63,52.63,0,0,1-1.5,14.1A76.22,76.22,0,0,1,196,82.82a84.09,84.09,0,0,1-9,11,97.79,97.79,0,0,1-11.7,10c-3.51,2.63-7.07,5.19-10.51,7.91-2.87,2.27-5.86,4.91-7.55,8.23a9.57,9.57,0,0,0,1.14,11,19.7,19.7,0,0,0,3.33,2.93c2.87,2.15,6,3.94,9,5.9,1.95,1.27,3.87,2.59,5.74,4l1.47,1.11c.33.25-.61-.48-.12-.09l.43.34.86.69q1.64,1.32,3.22,2.72a85.9,85.9,0,0,1,6.45,6.38q1.72,1.89,3.32,3.87l.75.94c.07.08.57.73.13.16l.3.39q.92,1.2,1.79,2.44a110.28,110.28,0,0,1,12,22.11q1.38,3.42,2.57,6.91a3.1,3.1,0,0,0,3.72,2.11,3.06,3.06,0,0,0,2.11-3.72C210,174.37,202,159.4,190.13,147.58a96.58,96.58,0,0,0-13-10.75c-3.3-2.3-6.75-4.38-10.11-6.6-.66-.43-1.31-.88-1.94-1.34l-.4-.3c-.63-.46.51.42.12.09s-.54-.44-.81-.66a15.7,15.7,0,0,1-1.28-1.26,2.48,2.48,0,0,1-.24-.29s.44.71.06,0c-.1-.17-.21-.34-.31-.51s-.26-.81-.06-.1c0-.14-.09-.27-.13-.41s-.09-.41-.13-.62c.16.85,0,.1,0-.13s0-.34,0-.52c0,.82,0,.2,0,0s.2-.68.32-1c-.25.76.16-.31.26-.49a13.16,13.16,0,0,1,.74-1.19c.06-.09.55-.74.1-.16l.39-.48q.44-.53.92-1c.64-.68,1.32-1.32,2-1.94s1.32-1.13,2-1.68l.47-.37c.1-.08.73-.56.12-.09l1-.79q2.58-1.94,5.17-3.88c4.28-3.18,8.59-6.36,12.54-9.94a86.27,86.27,0,0,0,10.44-11.58,85.88,85.88,0,0,0,13.79-26.21,61.1,61.1,0,0,0,2.25-29.21,47,47,0,0,0-5.81-16c-.14-.22-.27-.45-.42-.66a3.11,3.11,0,0,0-4.14-1.09,3.05,3.05,0,0,0-1.09,4.14Z" fill="#a2c609"></path><path d="M162.86,29.53c-6.43,0-6.45,10,0,10S169.3,29.53,162.86,29.53Z" fill="#ff3809"></path><path d="M160.58,40.94c-6.43,0-6.45,10,0,10S167,40.94,160.58,40.94Z" fill="#ff3809"></path><path d="M168.18,50.82c-6.43,0-6.45,10,0,10S174.62,50.82,168.18,50.82Z" fill="#ff3809"></path><path d="M178.44,58.42c-6.43,0-6.45,10,0,10S184.89,58.42,178.44,58.42Z" fill="#ff3809"></path><path d="M187.18,64.88c-6.43,0-6.45,10,0,10S193.63,64.88,187.18,64.88Z" fill="#ff3809"></path><path d="M196.3,74.38c-6.43,0-6.45,10,0,10S202.75,74.38,196.3,74.38Z" fill="#ff3809"></path><path d="M203.91,88.45c-6.43,0-6.45,10,0,10S210.35,88.45,203.91,88.45Z" fill="#ff3809"></path><path d="M208.47,101.75c-6.43,0-6.45,10,0,10S214.91,101.75,208.47,101.75Z" fill="#ff3809"></path><path d="M210,117.71c-6.43,0-6.45,10,0,10S216.43,117.71,210,117.71Z" fill="#ff3809"></path><path d="M211.13,132.16c-6.43,0-6.45,10,0,10S217.57,132.16,211.13,132.16Z" fill="#ff3809"></path><path d="M208.47,142c-6.43,0-6.45,10,0,10S214.91,142,208.47,142Z" fill="#ff3809"></path><path d="M201.63,153.82c-6.43,0-6.45,10,0,10S208.07,153.82,201.63,153.82Z" fill="#ff3809"></path><path d="M193.64,165.6c-6.43,0-6.45,10,0,10S200.09,165.6,193.64,165.6Z" fill="#ff3809"></path><path d="M184.52,175.48c-6.43,0-6.45,10,0,10S191,175.48,184.52,175.48Z" fill="#ff3809"></path><path d="M173.5,185c-6.43,0-6.45,10,0,10S179.95,185,173.5,185Z" fill="#ff3809"></path><path d="M164.76,193.73c-6.43,0-6.45,10,0,10S171.2,193.73,164.76,193.73Z" fill="#ff3809"></path><path d="M206.95,13.57c-6.43,0-6.45,10,0,10S213.39,13.57,206.95,13.57Z" fill="#0097da"></path><path d="M210.75,26.11c-6.43,0-6.45,10,0,10S217.19,26.11,210.75,26.11Z" fill="#0097da"></path><path d="M212.27,39c-6.43,0-6.45,10,0,10S218.71,39,212.27,39Z" fill="#0097da"></path><path d="M210,50.82c-6.43,0-6.45,10,0,10S216.43,50.82,210,50.82Z" fill="#0097da"></path><path d="M207.33,62.22c-6.43,0-6.45,10,0,10S213.77,62.22,207.33,62.22Z" fill="#0097da"></path><path d="M191,87.69c-6.43,0-6.45,10,0,10S197.43,87.69,191,87.69Z" fill="#0097da"></path><path d="M183,96.43c-6.43,0-6.45,10,0,10S189.45,96.43,183,96.43Z" fill="#0097da"></path><path d="M175.4,103.65c-6.43,0-6.45,10,0,10S181.85,103.65,175.4,103.65Z" fill="#0097da"></path><path d="M165.52,111.25c-6.43,0-6.45,10,0,10S172,111.25,165.52,111.25Z" fill="#0097da"></path><path d="M162.48,123.79c-6.43,0-6.45,10,0,10S168.92,123.79,162.48,123.79Z" fill="#0097da"></path><path d="M172.74,131.4c-6.43,0-6.45,10,0,10S179.18,131.4,172.74,131.4Z" fill="#0097da"></path><path d="M183,139.38c-6.43,0-6.45,10,0,10S189.45,139.38,183,139.38Z" fill="#0097da"></path><path d="M190.6,147.74c-6.43,0-6.45,10,0,10S197,147.74,190.6,147.74Z" fill="#0097da"></path><path d="M205.81,169c-6.43,0-6.45,10,0,10S212.25,169,205.81,169Z" fill="#0097da"></path><path d="M210.37,179.28c-6.43,0-6.45,10,0,10S216.81,179.28,210.37,179.28Z" fill="#0097da"></path><path d="M199.73,83.13c-6.43,0-6.45,10,0,10S206.17,83.13,199.73,83.13Z" fill="#0097da"></path><path d="M285.21,179.11s-.64,8.64-2.14,9.91-7.44,5.83-8.46,6.57-.05,3.21,3.46,3.21,10.21-4.14,10.21-4.14l5-1.84s.69-8.36-.37-13.52S285.21,179.11,285.21,179.11Z" fill="#4a2b0f"></path><path d="M302,193.07s-3.49,16.84-1.2,18.13,7.47-1.49,8.27-4.38.5-20,0-20.13" fill="#4a2b0f"></path><path d="M280.54,119.91l.87,62.48s7.71,2.62,15,0L295,123.23l4.25,72.69a17,17,0,0,0,13.07,0l-1.36-81.35-33.51-15Z" fill="#68e1fd"></path><path d="M299.11,58.14s-5.76-3.19-11.06-1.64-5.52,25-5.6,26.52.56,20.92.56,20.92l8.29,3.19Z" fill="#fff"></path><path d="M275.13,96.19c-5.13.39-14.58-14.66-14.58-14.66,5.24-2.78,5.48-8.84,5.48-8.84l12.91,11.88" fill="#dbdbdb"></path><path d="M260.55,81.53S258.1,81,260,76.45s4.65-5,6-3.76S265.23,81.88,260.55,81.53Z" fill="#9e9e9e"></path><path d="M291.32,56.05s-8.1-2.3-12.07,7c-5.38,12.54-5.64,84.24-5.64,84.24a18.8,18.8,0,0,0,8.86,4.83s.69-74,1.28-78.68C284.71,65.68,291.32,56.05,291.32,56.05Z" fill="#dbdbdb"></path><path d="M285.13,56.63s-4.57,5.44-4.23,5.44,1.64,1.64,1.64,1.64L280,66.21l3.31,35s-2.41-25.46,8.07-45.12C291.34,56.12,286.85,55.58,285.13,56.63Z" fill="#eef3f7"></path><path d="M299.11,58.14s8.12,2.83,10.23,10.29c2.18,7.69,2.52,85.07,2.52,85.88s-5.16,4-9.52,4.69-10.78-1.83-10.78-1.83L290.4,112s.55-25.94,1.16-30.88S299.11,58.14,299.11,58.14Z" fill="#dbdbdb"></path><path d="M302.81,120.56q-.37-19.19-.34-38.38a.67.67,0,0,0-1.34,0q-.06,19.37.35,38.73Z" fill="#9e9e9e"></path><path d="M300,144.77s17.67-16.79,18.91-16,1.11,26.17.86,26.91-12.39,13.21-13.85,13.58-7.13,0-7.13,0Z" fill="#4a2b0f"></path><path d="M305.4,142.09s-2.09-11.27,4-13.39,4.45,6.58,4.45,6.58l2.12-2.5s-.5-8.66-6.89-6.36-7.34,10.74-6.28,17" fill="#4a2b0f"></path><path d="M311.56,117.95a18.36,18.36,0,0,1-7,2.46,23.59,23.59,0,0,1-1.95,5.05c-.45,2-.5,3.86,1.51,3.67a.67.67,0,0,0,.56-.41c.06.54.12,1.07.19,1.61a.5.5,0,0,0,.15.27,1,1,0,0,0,1.14.7.89.89,0,0,0,.45-.17,1.13,1.13,0,0,0,.81,1,1,1,0,0,0,1.19-.52,1.23,1.23,0,0,0,1.56.48,1.56,1.56,0,0,0,.75-.91.62.62,0,0,0,.27-.25c1.56-2.7,1.26-5.65.48-8.52C311.61,120.89,311.59,119.42,311.56,117.95Z" fill="#f0b387"></path><path d="M299.11,57.88l3.23,1.89-1.22,6.81-4,.53,1.29,3.8s-4.25,9.36-5,10.95S290.73,99,290.73,99s.47-16.83,1-19S295.23,64.28,299.11,57.88Z" fill="#eef3f7"></path><path d="M310.66,117.18a25.11,25.11,0,0,1-8.65,3.08c-.85.14-.49,1.43.36,1.29a26.14,26.14,0,0,0,9-3.22A.67.67,0,0,0,310.66,117.18Z" fill="#9e9e9e"></path><path d="M290.4,59s.84,2.63,2.94,2.56,3.68-1.37,4.51-3.78" fill="#d89261"></path><path d="M287,48.27a4.29,4.29,0,0,1-2.13-4c0-3,4.69-5.31,6.62-5.58,2.49-.35,10.79.68,11.3,6.88.36,4.31-2.59,12-4.76,12" fill="#4a2b0f"></path><path d="M298.42,53.33a27.9,27.9,0,0,0-.78-2.86q-.16-.48-.34-1c-.59-1.53-1.49-1.07-2.9-1.08a13,13,0,0,1-3.18-.32,17.15,17.15,0,0,1-4.52-1.94c-.21,3.32-.35,13.08,5.07,13.92,3.29.51,5.09-.79,6.09-2.35C298.07,56.28,298.24,54.8,298.42,53.33Z" fill="#f0b387"></path><path d="M297.22,52.93s1.31-3.32,2.3-1.67c1.11,1.83-1.26,3.12-1.26,3.12" fill="#f0b387"></path><ellipse cx="287.74" cy="51.77" rx="2.17" ry="2.59" transform="translate(-2.58 86.29) rotate(-16.98)" fill="none" stroke="#42210b" stroke-miterlimit="10" stroke-width="0.25"></ellipse><ellipse cx="293.58" cy="53.19" rx="2.17" ry="2.59" transform="translate(-2.74 88.06) rotate(-16.98)" fill="none" stroke="#42210b" stroke-miterlimit="10" stroke-width="0.25"></ellipse><line x1="295.65" y1="52.56" x2="299.95" y2="49.64" fill="none" stroke="#42210b" stroke-miterlimit="10" stroke-width="0.25"></line><path d="M290.06,52.42s1,0,1.32.36" fill="none" stroke="#42210b" stroke-miterlimit="10" stroke-width="0.25"></path><path d="M258.64,78.44s4.2.73,6.89-.64,1.34-5.65-.73-5.59a32.42,32.42,0,0,0-6.16,1.36" fill="#f0b387"></path><path d="M254.15,75.75s-8,13.2-9.16,16.43,2.25,10.55,13.24,10.69,13.17-8.31,13-9.58-9.94-17.92-9.94-17.92" fill="#c0f3f8"></path><path d="M253.76,68.15V80s-8,12.13-7.37,14.44,3.63,6.39,11.84,6.45c9.15.06,10.68-6.83,10.68-7.41s-7.67-13.57-7.67-13.57V68.15" fill="#c0f3f8"></path><ellipse cx="257.5" cy="68.15" rx="3.74" ry="2.13" fill="#93d8db"></ellipse><path d="M261.25,79.95V77.6c-2.16-1.58-5.67-1.8-7.49.16V80c-1.2,1.82-2.36,3.67-3.46,5.55-.89,1.5-1.75,3-2.53,4.59-.68,1.38-1.72,3.16-1.24,4.73,1.46,4.76,6.95,6.59,11.41,6.62,2.92,0,6-.61,8.26-2.6,1.69-1.5,3.31-4.07,2.42-6.38a33.9,33.9,0,0,0-2.53-4.62c-1.55-2.67-3.17-5.31-4.81-7.93Z" fill="#68e1fd"></path><ellipse cx="257.5" cy="77.67" rx="3.74" ry="1.92" fill="#68e1fd"></ellipse><path d="M263.56,91.61q-1.47-3.88-2.61-7.87a.84.84,0,0,0-1.62.45q1.14,4,2.61,7.87C262.31,93.06,263.94,92.63,263.56,91.61Z" fill="#fff"></path><path d="M263.71,94a.84.84,0,0,0,0,1.68A.84.84,0,0,0,263.71,94Z" fill="#fff"></path><path d="M254.5,68.57s-1.85.11-2.07.92a1.16,1.16,0,0,0,.44,1.25s-1.8.71-1.52,1.74a6.77,6.77,0,0,0,.54,1.51s-1.58.89-1.25,1.65,4,2.77,5,2,0-2.39,0-2.39,1.47-1.39,1.25-2-1.14-1.07-1.14-1.07,1.58-1,1.16-1.9S254.5,68.57,254.5,68.57Z" fill="#f0b387"></path><path d="M263.6,71.54a26.75,26.75,0,0,1-3-1.18,1.6,1.6,0,0,0-1.54.15c-1.23.84-3.51,2.54-3.07,3.28.61,1,3.34-.25,3.8-.34s1.68,2.35,5.1,2c0,0,1.81-2.25,1.25-2.72A14.35,14.35,0,0,0,263.6,71.54Z" fill="#f0b387"></path><path d="M66.5,156.88c5-.43,10.25-1.94,13.94-5.36v14.8a15.36,15.36,0,0,1-15.36,15.36h0a15.36,15.36,0,0,1-15.36-15.36V151.27C55,153.41,60.9,157.36,66.5,156.88Z" fill="#68e1fd"></path><ellipse cx="65.08" cy="151.42" rx="15.36" ry="8.14" fill="#5ed18d"></ellipse><path d="M65.08,152.81s10.45-1.54,13.21-18.43C78.29,134.37,69.38,139.29,65.08,152.81Z" fill="#5ed18d"></path><path d="M63.54,150.66s12-21.51,0-35.94A60.25,60.25,0,0,0,63.54,150.66Z" fill="#5ed18d"></path><path d="M65.08,137.14s10.45-1.54,13.21-18.43C78.29,118.7,69.38,123.62,65.08,137.14Z" fill="#5ed18d"></path><path d="M63.81,144s2.62-10.23-11.9-19.3C51.91,124.72,53,134.84,63.81,144Z" fill="#5ed18d"></path><ellipse cx="65.08" cy="151.42" rx="15.36" ry="8.14" fill="#146666"></ellipse><path d="M65.08,152.81s10.45-1.54,13.21-18.43C78.29,134.37,69.38,139.29,65.08,152.81Z" fill="#5ed18d"></path><path d="M63.54,150.66s12-21.51,0-35.94A60.25,60.25,0,0,0,63.54,150.66Z" fill="#5ed18d"></path><path d="M65.08,137.14s10.45-1.54,13.21-18.43C78.29,118.7,69.38,123.62,65.08,137.14Z" fill="#5ed18d"></path><path d="M63.81,144s2.62-10.23-11.9-19.3C51.91,124.72,53,134.84,63.81,144Z" fill="#5ed18d"></path></svg>