<svg id="Layer_2" data-name="Layer 2" xmlns="http://www.w3.org/2000/svg" xmlns:xlink="http://www.w3.org/1999/xlink" viewBox="0 0 400 300" width="406" height="306" class="illustration styles_illustrationTablet__1DWOa"><defs><linearGradient id="linear-gradient" x1="133.73" y1="234.6" x2="160.7" y2="191.65" gradientUnits="userSpaceOnUse"><stop offset="0.01" stop-color="#d9616f"></stop><stop offset="1" stop-color="#a33f6f"></stop></linearGradient></defs><title>PP</title><path d="M193.6,286.92,13.87,180.7c-5.72-3.21-10.63-8.49-5.05-11.94l180.37-104c2.71-1.68,6.82-2.78,9.57-1.18L387.42,173.12c5.72,3.32,6.75,12.6,1,15.93L217.29,286.75A23.9,23.9,0,0,1,193.6,286.92Z" fill="#d9616f"></path><path d="M109.27,158.53l-58,34.94s106.22,61.06,134.93,78.12l57.28-39.33" fill="url(#linear-gradient)"></path><polyline points="87.59 172.85 87.59 176.81 89.6 179.27" fill="#adcee1"></polyline><path d="M167.24,124.59l-77.38,48A4.8,4.8,0,0,0,90,180.8l117.42,66.42a10.75,10.75,0,0,0,10.74-.09l77-45.28c5.6-4.6,5.18-13.25,0-13.62L178.43,124.41A10.91,10.91,0,0,0,167.24,124.59Z" fill="#88d3d8"></path><path d="M167.24,121.29l-77.38,48A4.8,4.8,0,0,0,90,177.5l117.42,66.42a10.75,10.75,0,0,0,10.74-.09l77-45.28a6,6,0,0,0,0-10.32L178.43,121.11A10.91,10.91,0,0,0,167.24,121.29Z" fill="#fff"></path><path d="M170.4,114.74S202.53,11,202.33,11s1-4.61,6.75-2L332.39,81.61s6,2.42,4.81,8S305.8,191.08,305.8,191.08a5.21,5.21,0,0,1-5.83,2c-3.76-1.17-126.68-72.57-126.68-72.57S169.19,119,170.4,114.74Z" fill="#053855"></path><polygon points="204.38 18.56 330.66 92.18 304.47 180.12 176.56 108.69 204.38 18.56" fill="#68e1fd"></polygon><path d="M162.49,132.28,134.2,149.91a3.41,3.41,0,0,0,.11,5.86l101.55,57.89a10,10,0,0,0,10,0c6.53-3.8,17.77-10.66,24.65-14.88a4.15,4.15,0,0,0-.08-7.13c-20.54-11.94-87.54-50.91-102.21-59.42A5.53,5.53,0,0,0,162.49,132.28Z" fill="#68e1fd"></path><path d="M164,180.12l35.48,19.95a3.54,3.54,0,0,1,.05,6.15l-20.86,12.21a4.71,4.71,0,0,1-4.71,0l-36.3-20.7a3,3,0,0,1,0-5.15l21.7-12.47A4.71,4.71,0,0,1,164,180.12Z" fill="#68e1fd"></path><path d="M162.49,132.28,134.2,149.91a3.41,3.41,0,0,0,.11,5.86l101.55,57.89a10,10,0,0,0,10,0c6.53-3.8,17.77-10.66,24.65-14.88a4.15,4.15,0,0,0-.08-7.13c-20.54-11.94-87.54-50.91-102.21-59.42A5.53,5.53,0,0,0,162.49,132.28Z" fill="#053855" opacity="0.1"></path><path d="M164,180.12l35.48,19.95a3.54,3.54,0,0,1,.05,6.15l-20.86,12.21a4.71,4.71,0,0,1-4.71,0l-36.3-20.7a3,3,0,0,1,0-5.15l21.7-12.47A4.71,4.71,0,0,1,164,180.12Z" fill="#053855" opacity="0.1"></path><path d="M249.44,67.59c12.57,0,23,11.81,24.76,27.15,1-.29,1.94-.58,2.91-.89C275,77.29,263.39,64.59,249.44,64.59c-8,0-15.26,4.22-20.37,10.94l2.71,1.35C236.3,71.15,242.55,67.59,249.44,67.59Z" fill="#0071bc"></path><path d="M229.53,118.54a37.36,37.36,0,0,1-5.12-19.19,39,39,0,0,1,2.06-12.59,2.5,2.5,0,0,1-.42-.09c-.81-.26-1.63-.52-2.44-.8a41.82,41.82,0,0,0-2.2,13.49,40.18,40.18,0,0,0,5.75,21Q228.34,119.45,229.53,118.54Z" fill="#0071bc"></path><path d="M274.05,105c-2.12,14.8-12.34,26.06-24.61,26.06a20.81,20.81,0,0,1-11.82-3.8c-.69.74-1.41,1.46-2.16,2.13a23.83,23.83,0,0,0,14,4.67c13.86,0,25.4-12.55,27.63-29Z" fill="#0071bc"></path><path d="M230.17,99.34c0-13.52,8.64-24.53,19.26-24.53a16.39,16.39,0,0,1,10.63,4.08q1.05-1.06,2.13-2.1a19.39,19.39,0,0,0-12.76-5c-12.28,0-22.26,12.35-22.26,27.53a33.88,33.88,0,0,0,.37,5l2.86-1.21A31.23,31.23,0,0,1,230.17,99.34Z" fill="#0071bc"></path><path d="M253.84,123.22a15.33,15.33,0,0,1-4.4.65c-7.15,0-13.39-5-16.72-12.38q-1.34.66-2.71,1.28c3.82,8.4,11.09,14.1,19.43,14.1A18.24,18.24,0,0,0,255,126C254.59,125.08,254.22,124.15,253.84,123.22Z" fill="#0071bc"></path><path d="M263,116.68c.38,1.07.79,2.13,1.22,3.18a30.6,30.6,0,0,0,7.46-20.52,31.74,31.74,0,0,0-4.51-16.54l-2.29,2a29,29,0,0,1,3.8,14.56A28.07,28.07,0,0,1,263,116.68Z" fill="#0071bc"></path><path d="M249.44,83.74c4.87,0,9.07,3.71,11,9,1-.25,1.94-.51,2.9-.79-2.33-6.6-7.68-11.24-13.9-11.24A12.62,12.62,0,0,0,244,82c.28,1,.54,2,.78,2.94A9.81,9.81,0,0,1,249.44,83.74Z" fill="#0071bc"></path><path d="M264.39,96.47c-1,.28-1.94.54-2.92.8a20,20,0,0,1,.12,2.08c0,8.6-5.45,15.6-12.15,15.6h-.17c-.26,1-.53,2-.82,2.95.33,0,.66.06,1,.06,8.35,0,15.15-8.35,15.15-18.6A22.71,22.71,0,0,0,264.39,96.47Z" fill="#0071bc"></path><path d="M240.53,114.34c.45-.94.9-1.87,1.36-2.8a17.5,17.5,0,0,1-4.6-12.2,18,18,0,0,1,3.58-11.05c-.28-1.16-.56-2.33-.86-3.48a20.37,20.37,0,0,0-5.72,14.53A20.13,20.13,0,0,0,240.53,114.34Z" fill="#0071bc"></path><path d="M229.71,86.92c-.79.36-1.56.73-2.34,1.1.61-.38,1.22-.78,1.8-1.21s1.44-1.39,1.31-2.18c-.19-1.19-2.25-.13-3.79.83,1.07-.93,1.95-2,1-2.41s-1.91.76-2.48,1.16c-1,.72-2,1.49-2.93,2.31a20.63,20.63,0,0,0,1.78-2.8c.55-.92-.82-1.68-1.49-1a58.07,58.07,0,0,1-6.11,5.75.94.94,0,0,0-.25.28l-1.33,0c-.4,0-.77,0-1.14,0l-.32,0a.81.81,0,0,0-.75.23,2.59,2.59,0,0,0-.5.23.84.84,0,0,0-.14.12c-.44,0-.88.08-1.31.14a1,1,0,0,0-.71,1.37l-.18-.1c-1-.61-1.77,1-.79,1.63A13.2,13.2,0,0,0,216,94.31a.42.42,0,0,0,.46.37,27.24,27.24,0,0,0,7.63-1.3,4.65,4.65,0,0,0,.89-.35,13.45,13.45,0,0,0,4-2.55.5.5,0,0,0-.49-.84l-.43.13c.28-.16.56-.31.83-.48.68-.43,1.49-.95,1.6-1.81A.51.51,0,0,0,229.71,86.92Z" fill="#fcbf81"></path><path d="M196.41,77.1a10,10,0,0,1,.68-1.34.14.14,0,0,0,0,.07.18.18,0,0,0,.32.05l.49-.75a.87.87,0,0,0,0,.29.75.75,0,0,0,.83.59.74.74,0,0,0,.66-.93l.23-.26a.74.74,0,0,0,0,.23.65.65,0,0,0,1.08.27c.09-.07.16-.16.25-.24a.55.55,0,0,0,.44,0,16.8,16.8,0,0,0,1.88-.77.29.29,0,0,1-.09-.46,18.76,18.76,0,0,1,2.28-1.58l.1,0,0-.08a2.56,2.56,0,0,0-.12-1.84,2,2,0,0,0,.41-1.7.31.31,0,0,1-.17-.07,1.39,1.39,0,0,1-.29-.34,1.94,1.94,0,0,1-.32-.59.26.26,0,0,1,.1-.29c-.3-.4-.64-.77-1-1.11a7.5,7.5,0,0,0,1-4.21.64.64,0,0,0-1.2-.31,13.59,13.59,0,0,0-.79,1.44.54.54,0,0,0-.18.2A79.58,79.58,0,0,1,199,70.9c-.26.41-3.45,4.81-3.09,4.91C195.8,76,193.19,82,196.41,77.1Zm1.89-1.86s0,0,0,0a.17.17,0,0,0,.26,0l0,0a.66.66,0,0,0,.55.11.42.42,0,0,1-.84-.06Z" fill="#fcbf81"></path><path d="M196.75,75.7a7,7,0,0,0,1.72-2,1.34,1.34,0,0,1,1.86-.52,7.86,7.86,0,0,0,.07-1.07c0-1.81,2.85-1.84,2.82,0a6.86,6.86,0,0,1-1.09,4,11.55,11.55,0,0,1-3.07,2.72,1.45,1.45,0,0,1-2.15-1.09l-.13-.1A1.42,1.42,0,0,1,196.75,75.7Z" fill="#fcbf81"></path><path d="M201.27,76.78a5.72,5.72,0,0,0,2.39-3.34.16.16,0,0,0,.23.05l1.13-.76a2.63,2.63,0,0,0,.63-.52c.41-.52,0-1.12-.16-1.66a.17.17,0,0,0-.06-.08l.16-.27a2.41,2.41,0,0,0,.42-1.4c-.08-.49-.54-.81-.76-1.23a1.09,1.09,0,0,0-.66-1.2c-.6-.27-.93.18-1.26.62q-1,1.42-2,2.91c-.12.19.19.36.31.17.34-.54.68-1.07,1-1.59a6.64,6.64,0,0,1,1.14-1.59c1.26-.73,1,1,.81,1.46-.12.26-.27.51-.42.76l-.95,1.68a.17.17,0,0,0,0,0,.16.16,0,0,0,0,.14,5,5,0,0,1-2.17,5.51C200.9,76.6,201.09,76.9,201.27,76.78ZM203.83,71a.16.16,0,0,0-.19,0l0-.12a13.4,13.4,0,0,0,1.54-2.87c.09.11.18.22.26.34a1.07,1.07,0,0,1,.07,1.18C205.25,70.13,204.6,71.48,203.83,71Zm-.11,2.14a4.93,4.93,0,0,0,0-1.81c.6.3,1.12-.1,1.49-.59a3.89,3.89,0,0,1,.25.7.73.73,0,0,1-.38.78C204.64,72.59,204.17,72.88,203.72,73.18Z" fill="#34323d"></path><path d="M181.12,82.46s8.23.39,10.37-1.58,5.23-8.18,5.23-8.18,5.67,3.64,6,5.74S196.76,90.69,194,91.37" fill="#4d47c4"></path><path d="M168.64,183.93s7-3.09,8.63-3.22,4.47.45,2,3.52c0,0-7.32,4.79-8.28,4.94s-3.31-.58-3.37-.33-.28,2.1-.28,2.1-6.12,2.33-6.38-1.76c0-.53.88-8.13.88-8.13" fill="#34323d"></path><path d="M160.66,166c1.21-7.86,3.42-15.48,4.35-23.44.58-5,1-10,1.61-15s2.48-9.84,3.68-14.79a.54.54,0,0,0-.25-.61c.06-.17.11-.35.16-.52.62-.59,1.25-1.15,1.86-1.68l8.55,5.76s-.05,5.24-.32,12.82c-1,4.42-1.75,8.37-2.87,12.56a1.1,1.1,0,0,1,.26,1,355.19,355.19,0,0,0-6.07,40,1.16,1.16,0,0,1-.76,1l-.24,2.07c-7.44,2.87-9.07-2.13-9.07-2.13s-.34-4.26-.76-10.18C160.65,170.55,160.61,168.27,160.66,166Z" fill="#34323d"></path><path d="M183.86,195.37l4.13,1.48a2.28,2.28,0,0,0,1.67,1.52.92.92,0,0,0,.58.32,10.83,10.83,0,0,0,4.91-.8c2-.62,9.71-3.58,7.56,2-1.41,1-3,1.85-4.43,2.73-.81.49-1.63,1-2.46,1.44a4.88,4.88,0,0,1-1.44.67c-1.11.17-3.81-.67-3.88-.38s-.32,2.42-.32,2.42-7,2.68-7.34-2C182.8,204.1,183.86,195.37,183.86,195.37Z" fill="#34323d"></path><path d="M178,153.08c-.86-13.9-1.34-27.88-4.27-41.55-.13-3.55-2.43-1.28-2.27-2.69,1.25-11.43,17.91,2.17,17.91,2.17.67.55.76,4.06.89,4.85q1.13,6.59,1.93,13.22c2.76,22.33,1.74,44.54.61,66.94-3.54,3.62-5.86,4.7-11.56,2.36-1.14-14.66-2.22-29.32-3.16-44Z" fill="#34323d"></path><path d="M187,84c-.16-.72-2-1.21-2.58-1.51-1.29-.7-.54-1.92-1.8-2.68A43.37,43.37,0,0,0,176.85,77h-.05c-3.16,0-8.46-.18-8.78,4-.49,6.5.08,13,.58,19.46.2,2.6.43,5.18.66,7.72.08.93.2,8.43.76,8.66,6.27,2.6,14.29,1.68,20.43-.75A208.6,208.6,0,0,0,187,84Z" fill="#695dd8"></path><path d="M181.32,90.54a10.6,10.6,0,0,0,7.79,9.31c0,.43.13,3.07.18,3.5-5-1.2-8.7-7.49-9.22-12.81C180,89.74,181.24,89.74,181.32,90.54Z" fill="#34323d"></path><path d="M178.26,63.86c.41.11,3.92,8.17,2.54,13.06s-9.69-.14-11.78-3.87S170.4,61.82,178.26,63.86Z" fill="#fcbf81"></path><path d="M178.15,65a3.87,3.87,0,0,1-2.32,3.52c-2.33.86-4.26,1.44-4.14,2.52s4.21-.15,4.22,2.31a18.37,18.37,0,0,1-.67,4.91c-.26,1.21-7.24-2.49-9.54-8.81s3.46-8,3.74-8,.8-1.76,3.63-2.37,3.62.48,3.62.48a3.43,3.43,0,0,1,4.13.45c2.61,2.07,1.94,5.85-1,7.38Z" fill="#34323d"></path><path d="M181.31,79.09s14.38,8.24,19.56,8.25c3.74,0,11.14-1.21,15-1.89,3.56,3,3.8,8.3,1.59,12.35-6.28,1-24.88,3.7-30.71.81-7.06-3.5-14.83-8.19-14.83-8.19S164.86,83.53,181.31,79.09Z" fill="#695dd8"></path></svg>